<?xml version="1.0" encoding="iso-8859-1"?>
<!-- Generator: Adobe Illustrator 18.0.0, SVG Export Plug-In . SVG Version: 6.00 Build 0)  -->
<!DOCTYPE svg PUBLIC "-//W3C//DTD SVG 1.1//EN" "http://www.w3.org/Graphics/SVG/1.1/DTD/svg11.dtd">
<svg version="1.1" id="Capa_1" xmlns="http://www.w3.org/2000/svg" xmlns:xlink="http://www.w3.org/1999/xlink" x="0px" y="0px"
	 viewBox="0 0 481.15 481.15" style="enable-background:new 0 0 481.15 481.15;" xml:space="preserve">
<g>
	<path d="M465.275,160.39h-110.73v144.524c0,27.355-22.266,49.619-49.623,49.619H160.381v110.769
		c0,8.757,7.094,15.849,15.851,15.849h289.044c8.777,0,15.865-7.092,15.865-15.849V176.254
		C481.141,167.48,474.053,160.39,465.275,160.39z"/>
	<path d="M320.772,304.914V15.864C320.772,7.092,313.68,0,304.922,0H189.836v157.09c0,18.058-14.679,32.736-32.738,32.736H0.01
		v115.088c0,8.756,7.094,15.847,15.864,15.847h289.048C313.68,320.761,320.772,313.67,320.772,304.914z"/>
	<path d="M156.062,0H15.874C7.104,0,0.01,7.092,0.01,15.864v140.747l144.216-0.517c6.544-0.023,11.836-5.335,11.836-11.879V0z"/>
</g>
<g>
</g>
<g>
</g>
<g>
</g>
<g>
</g>
<g>
</g>
<g>
</g>
<g>
</g>
<g>
</g>
<g>
</g>
<g>
</g>
<g>
</g>
<g>
</g>
<g>
</g>
<g>
</g>
<g>
</g>
</svg>
